<svg height="128" width="128" xmlns="http://www.w3.org/2000/svg"><rect x="2" y="2" width="124" height="124" rx="14" fill="#364053" stroke="#bed3f2" stroke-width="4"/><g transform="translate(64,64) scale(0.65)"><path fill="#bed3f2" d="M37.7 58.7c-5-4.4-2.8-12.7 3.7-14 3.7-.7 13.7-27 15-32 2-7.8 13.5-7.8 15.5 0 1.2 5 11.2 31.3 15 32 6.4 1.3 8.7 9.6 3.7 14-3.5 3-11 23-12.3 27-2.6 7.7-13.7 7.7-16.3 0-1.3-4-8.8-24-12.3-27z"/><circle cx="0" cy="8" r="14" fill="#bed3f2"/><circle cx="0" cy="8" r="8" fill="#364053"/></g></svg>
